HIERARCHY
ROOT Hips
{
	OFFSET 0.000000 97.167313 0.000000
	CHANNELS 6 Xposition Yposition Zposition Xrotation Yrotation Zrotation
	JOINT Spine
	{
		OFFSET 0.000000 13.784798 0.064400
		CHANNELS 3 Xrotation Yrotation Zrotation
		JOINT Spine1
		{
			OFFSET 0.000000 12.037903 0.404700
			CHANNELS 3 Xrotation Yrotation Zrotation
			JOINT Spine2
			{
				OFFSET 0.000000 17.795601 0.420200
				CHANNELS 3 Xrotation Yrotation Zrotation
				JOINT Neck
				{
					OFFSET 0.000000 39.131302 11.954600
					CHANNELS 3 Xrotation Yrotation Zrotation
					JOINT Head
					{
						OFFSET 0.000000 14.456192 15.627699
						CHANNELS 3 Xrotation Yrotation Zrotation
						JOINT HeadTop_End
						{
							OFFSET 0.000000 15.703506 7.603401
							CHANNELS 3 Xrotation Yrotation Zrotation
							End Site
							{
								OFFSET 0.000000 17.447403 0.000000
							}
						}
					}
				}
				JOINT LeftShoulder
				{
					OFFSET 17.399500 24.608795 1.168800
					CHANNELS 3 Xrotation Yrotation Zrotation
					JOINT LeftArm
					{
						OFFSET 18.980635 5.765305 1.818600
						CHANNELS 3 Xrotation Yrotation Zrotation
						JOINT LeftForeArm
						{
							OFFSET 49.290169 0.000000 0.000000
							CHANNELS 3 Xrotation Yrotation Zrotation
							JOINT LeftHand
							{
								OFFSET 31.562012 0.000000 0.000000
								CHANNELS 3 Xrotation Yrotation Zrotation
								JOINT LeftHandThumb1
								{
									OFFSET 6.133995 -4.388519 7.076070
									CHANNELS 3 Xrotation Yrotation Zrotation
									JOINT LeftHandThumb2
									{
										OFFSET 6.037666 -3.485840 3.485847
										CHANNELS 3 Xrotation Yrotation Zrotation
										JOINT LeftHandThumb3
										{
											OFFSET 6.496506 -3.750763 3.750761
											CHANNELS 3 Xrotation Yrotation Zrotation
											JOINT LeftHandThumb4
											{
												OFFSET 5.616882 -3.242905 3.242910
												CHANNELS 3 Xrotation Yrotation Zrotation
												End Site
												{
													OFFSET -1.254608 7.132141 0.375429
												}
											}
										}
									}
								}
								JOINT LeftHandPinky1
								{
									OFFSET 18.920792 -0.453171 -11.426712
									CHANNELS 3 Xrotation Yrotation Zrotation
									JOINT LeftHandPinky2
									{
										OFFSET 4.919586 0.000000 0.000000
										CHANNELS 3 Xrotation Yrotation Zrotation
										JOINT LeftHandPinky3
										{
											OFFSET 5.233047 0.000000 0.000000
											CHANNELS 3 Xrotation Yrotation Zrotation
											JOINT LeftHandPinky4
											{
												OFFSET 5.571716 0.000000 0.000000
												CHANNELS 3 Xrotation Yrotation Zrotation
												End Site
												{
													OFFSET -3.459808 4.342407 -0.466164
												}
											}
										}
									}
								}
								JOINT LeftHandRing1
								{
									OFFSET 22.726120 -0.094986 -6.500475
									CHANNELS 3 Xrotation Yrotation Zrotation
									JOINT LeftHandRing2
									{
										OFFSET 6.408615 0.000000 0.000000
										CHANNELS 3 Xrotation Yrotation Zrotation
										JOINT LeftHandRing3
										{
											OFFSET 6.150223 0.000000 0.000000
											CHANNELS 3 Xrotation Yrotation Zrotation
											JOINT LeftHandRing4
											{
												OFFSET 6.145386 0.000000 0.000000
												CHANNELS 3 Xrotation Yrotation Zrotation
												End Site
												{
													OFFSET -3.671402 4.923981 -0.202372
												}
											}
										}
									}
								}
								JOINT LeftHandMiddle1
								{
									OFFSET 23.373947 0.000000 0.000001
									CHANNELS 3 Xrotation Yrotation Zrotation
									JOINT LeftHandMiddle2
									{
										OFFSET 6.996567 0.000000 0.000000
										CHANNELS 3 Xrotation Yrotation Zrotation
										JOINT LeftHandMiddle3
										{
											OFFSET 7.015945 0.000000 0.000000
											CHANNELS 3 Xrotation Yrotation Zrotation
											JOINT LeftHandMiddle4
											{
												OFFSET 7.721573 0.000000 0.000000
												CHANNELS 3 Xrotation Yrotation Zrotation
												End Site
												{
													OFFSET -4.651108 6.158463 0.251582
												}
											}
										}
									}
								}
								JOINT LeftHandIndex1
								{
									OFFSET 21.310577 -0.490082 6.209344
									CHANNELS 3 Xrotation Yrotation Zrotation
									JOINT LeftHandIndex2
									{
										OFFSET 7.536453 0.000000 0.000000
										CHANNELS 3 Xrotation Yrotation Zrotation
										JOINT LeftHandIndex3
										{
											OFFSET 7.512344 0.000000 0.000000
											CHANNELS 3 Xrotation Yrotation Zrotation
											JOINT LeftHandIndex4
											{
												OFFSET 10.212402 0.000000 0.000001
												CHANNELS 3 Xrotation Yrotation Zrotation
												End Site
												{
													OFFSET -5.180801 8.690506 1.388433
												}
											}
										}
									}
								}
							}
						}
					}
				}
				JOINT RightShoulder
				{
					OFFSET -17.399500 24.608795 1.168800
					CHANNELS 3 Xrotation Yrotation Zrotation
					JOINT RightArm
					{
						OFFSET -18.980635 5.765305 1.818600
						CHANNELS 3 Xrotation Yrotation Zrotation
						JOINT RightForeArm
						{
							OFFSET -49.290169 0.000000 0.000000
							CHANNELS 3 Xrotation Yrotation Zrotation
							JOINT RightHand
							{
								OFFSET -31.562012 0.000000 0.000000
								CHANNELS 3 Xrotation Yrotation Zrotation
								JOINT RightHandThumb1
								{
									OFFSET -6.133995 -4.388519 7.076070
									CHANNELS 3 Xrotation Yrotation Zrotation
									JOINT RightHandThumb2
									{
										OFFSET -6.037666 -3.485840 3.485847
										CHANNELS 3 Xrotation Yrotation Zrotation
										JOINT RightHandThumb3
										{
											OFFSET -6.496506 -3.750763 3.750761
											CHANNELS 3 Xrotation Yrotation Zrotation
											JOINT RightHandThumb4
											{
												OFFSET -5.616882 -3.242905 3.242910
												CHANNELS 3 Xrotation Yrotation Zrotation
												End Site
												{
													OFFSET 1.254608 7.132141 0.375429
												}
											}
										}
									}
								}
								JOINT RightHandIndex1
								{
									OFFSET -21.310577 -0.490082 6.209344
									CHANNELS 3 Xrotation Yrotation Zrotation
									JOINT RightHandIndex2
									{
										OFFSET -7.536453 0.000000 0.000000
										CHANNELS 3 Xrotation Yrotation Zrotation
										JOINT RightHandIndex3
										{
											OFFSET -7.512344 0.000000 0.000000
											CHANNELS 3 Xrotation Yrotation Zrotation
											JOINT RightHandIndex4
											{
												OFFSET -10.212402 0.000000 0.000001
												CHANNELS 3 Xrotation Yrotation Zrotation
												End Site
												{
													OFFSET 5.180801 8.690506 1.388433
												}
											}
										}
									}
								}
								JOINT RightHandMiddle1
								{
									OFFSET -23.373947 0.000000 0.000001
									CHANNELS 3 Xrotation Yrotation Zrotation
									JOINT RightHandMiddle2
									{
										OFFSET -6.996567 0.000000 0.000000
										CHANNELS 3 Xrotation Yrotation Zrotation
										JOINT RightHandMiddle3
										{
											OFFSET -7.015945 0.000000 0.000000
											CHANNELS 3 Xrotation Yrotation Zrotation
											JOINT RightHandMiddle4
											{
												OFFSET -7.721573 0.000000 0.000000
												CHANNELS 3 Xrotation Yrotation Zrotation
												End Site
												{
													OFFSET 4.651108 6.158463 0.251582
												}
											}
										}
									}
								}
								JOINT RightHandRing1
								{
									OFFSET -22.726120 -0.094986 -6.500475
									CHANNELS 3 Xrotation Yrotation Zrotation
									JOINT RightHandRing2
									{
										OFFSET -6.408615 0.000000 0.000000
										CHANNELS 3 Xrotation Yrotation Zrotation
										JOINT RightHandRing3
										{
											OFFSET -6.150223 0.000000 0.000000
											CHANNELS 3 Xrotation Yrotation Zrotation
											JOINT RightHandRing4
											{
												OFFSET -6.145386 0.000000 0.000000
												CHANNELS 3 Xrotation Yrotation Zrotation
												End Site
												{
													OFFSET 3.671402 4.923981 -0.202372
												}
											}
										}
									}
								}
								JOINT RightHandPinky1
								{
									OFFSET -18.920792 -0.453171 -11.426712
									CHANNELS 3 Xrotation Yrotation Zrotation
									JOINT RightHandPinky2
									{
										OFFSET -4.919586 0.000000 0.000000
										CHANNELS 3 Xrotation Yrotation Zrotation
										JOINT RightHandPinky3
										{
											OFFSET -5.233047 0.000000 0.000000
											CHANNELS 3 Xrotation Yrotation Zrotation
											JOINT RightHandPinky4
											{
												OFFSET -5.571716 0.000000 0.000000
												CHANNELS 3 Xrotation Yrotation Zrotation
												End Site
												{
													OFFSET 3.459808 4.342407 -0.466164
												}
											}
										}
									}
								}
							}
						}
					}
				}
			}
		}
	}
	JOINT LeftUpLeg
	{
		OFFSET 19.899099 -7.885101 -3.429500
		CHANNELS 3 Xrotation Yrotation Zrotation
		JOINT LeftLeg
		{
			OFFSET 1.745560 -36.997807 10.304700
			CHANNELS 3 Xrotation Yrotation Zrotation
			JOINT LeftFoot
			{
				OFFSET -1.745558 -29.803308 -13.615400
				CHANNELS 3 Xrotation Yrotation Zrotation
				JOINT LeftToeBase
				{
					OFFSET 1.181900 -18.539904 15.226099
					CHANNELS 3 Xrotation Yrotation Zrotation
					JOINT LeftToe_End
					{
						OFFSET -0.863701 1.402801 16.534700
						CHANNELS 3 Xrotation Yrotation Zrotation
						End Site
						{
							OFFSET 0.000000 16.616566 0.000000
						}
					}
				}
			}
		}
	}
	JOINT RightUpLeg
	{
		OFFSET -19.899099 -7.885101 -3.429500
		CHANNELS 3 Xrotation Yrotation Zrotation
		JOINT RightLeg
		{
			OFFSET -1.745560 -36.997807 10.304700
			CHANNELS 3 Xrotation Yrotation Zrotation
			JOINT RightFoot
			{
				OFFSET 1.745558 -29.803308 -13.615400
				CHANNELS 3 Xrotation Yrotation Zrotation
				JOINT RightToeBase
				{
					OFFSET -1.181900 -18.539904 15.226099
					CHANNELS 3 Xrotation Yrotation Zrotation
					JOINT RightToe_End
					{
						OFFSET 0.863701 1.402801 16.534700
						CHANNELS 3 Xrotation Yrotation Zrotation
						End Site
						{
							OFFSET 0.000000 16.616566 0.000000
						}
					}
				}
			}
		}
	}
}
MOTION
Frames: 4
Frame Time: 0.033333
0.682387 39.702663 -14.690765 78.660352 -1.691479 -0.367476 1.467886 0.186518 -0.343200 2.046246 0.286971 -0.332283 2.045501 0.291532 -0.333832 -23.287779 -1.468848 4.252240 -6.915010 2.279754 -1.315689 -0.000001 0.000000 -0.000000 2.032119 -12.163238 2.087481 -6.801657 -39.492850 -14.854203 0.000016 -44.598557 0.000016 18.599954 -0.092093 82.086757 3.377804 -15.591633 21.038511 16.616512 30.885675 7.470334 4.709576 -14.976143 38.022574 -0.000000 0.000001 -0.000003 0.124773 0.548172 10.690320 0.022112 0.509067 -4.974076 0.022124 0.509070 -4.974082 0.000001 0.000002 -0.000002 0.173059 1.128678 7.185174 0.014156 0.407448 -3.979226 0.031831 0.610536 -5.968916 -0.000001 0.000000 0.000003 0.145303 1.309860 6.418908 0.022115 0.509073 -4.974087 0.043311 0.711829 -6.963859 -0.000001 -0.000000 0.000008 0.127618 1.425098 5.589587 0.022116 0.509082 -4.974078 0.022112 0.509074 -4.974071 -0.000001 0.000001 0.000002 2.993639 10.501571 0.056526 -26.590741 41.037925 31.177088 0.000018 47.057756 -0.000017 6.444234 -4.810803 -75.032743 -8.585250 -1.402638 -28.116557 15.238606 0.853412 -4.423702 3.560839 -5.296579 -20.729585 0.000001 0.000000 0.000002 0.222969 -0.760129 -8.414797 0.017645 -0.405469 4.983565 0.017646 -0.405453 4.983474 -0.000000 -0.000003 -0.000002 0.278269 -0.553740 -9.805528 0.017640 -0.405459 4.983578 0.034571 -0.566913 6.976920 0.000000 0.000001 -0.000009 0.304305 -0.406481 -9.824016 0.011295 -0.324513 3.986833 0.025405 -0.486252 5.980132 -0.000000 0.000001 -0.000003 0.142166 0.381748 -13.705965 0.017642 -0.405466 4.983576 0.017644 -0.405472 4.983575 0.000003 -0.000001 0.000004 -8.642293 8.144165 4.747865 9.063883 1.860178 3.709192 -29.601292 2.523131 -1.676791 -48.640994 3.676302 -10.595497 -0.000000 -0.000000 0.000000 -13.071771 -7.138955 -5.376357 10.018626 -10.825891 -2.703809 -5.484501 -3.040612 5.169765 -62.721573 -12.222805 19.293920 0.000000 -0.000001 -0.000001 
0.712159 38.334679 -13.796455 79.683412 -1.638923 -0.341139 1.364867 0.240118 -0.399593 1.911611 0.365042 -0.421716 1.910478 0.369931 -0.423393 -22.762010 -1.431071 4.300442 -9.080829 2.275111 -1.536907 -0.000001 0.000000 -0.000000 1.996079 -10.641477 1.710804 -7.612621 -36.280910 -16.288818 0.000000 -52.991326 -0.000020 21.127645 3.253279 80.625909 3.377807 -15.591631 21.038514 16.616515 30.885678 7.470340 4.709577 -14.976141 38.022570 0.000001 -0.000000 0.000001 0.124772 0.548173 10.690319 0.022113 0.509066 -4.974079 0.022126 0.509064 -4.974085 -0.000001 0.000002 0.000001 0.173059 1.128681 7.185172 0.014156 0.407445 -3.979226 0.031832 0.610536 -5.968913 0.000000 0.000000 0.000002 0.145305 1.309861 6.418905 0.022114 0.509073 -4.974081 0.043311 0.711830 -6.963867 -0.000000 -0.000000 -0.000001 0.127619 1.425101 5.589586 0.022115 0.509078 -4.974077 0.022113 0.509075 -4.974075 -0.000001 0.000003 0.000002 3.018634 9.217603 0.558851 -25.267366 36.828298 31.442202 0.000007 56.120294 -0.000011 8.483870 -8.444676 -74.398464 -8.573314 -1.413531 -28.086848 15.238608 0.853411 -4.423704 3.560837 -5.296581 -20.729580 -0.000000 0.000000 0.000003 0.222972 -0.760132 -8.414796 0.017650 -0.405469 4.983565 0.017644 -0.405458 4.983471 -0.000001 -0.000003 -0.000001 0.278270 -0.553743 -9.805528 0.017642 -0.405456 4.983573 0.034572 -0.566914 6.976921 -0.000000 0.000000 -0.000004 0.304304 -0.406484 -9.824016 0.011294 -0.324515 3.986831 0.025404 -0.486251 5.980129 -0.000000 -0.000002 -0.000007 0.142168 0.381746 -13.705962 0.017641 -0.405464 4.983575 0.017644 -0.405475 4.983577 0.000001 -0.000002 0.000004 -8.155366 8.076857 4.597513 7.991553 1.798400 3.761269 -29.070597 2.441650 -1.662084 -49.862935 3.879403 -10.426362 -0.000000 0.000000 0.000000 -12.562797 -7.228092 -5.325518 8.878423 -11.024724 -2.702514 -5.024317 -2.971183 5.061910 -63.851354 -12.361596 19.086967 0.000000 -0.000002 0.000000 
0.717927 36.709999 -12.817688 80.715474 -1.624536 -0.317394 1.290670 0.307926 -0.389594 1.813241 0.460388 -0.445327 1.811793 0.465107 -0.447075 -22.163539 -1.268641 4.014183 -11.098667 2.203695 -1.471981 0.000001 -0.000000 0.000000 1.953658 -9.451323 1.033003 -7.302416 -32.576157 -16.763111 0.000055 -61.547026 0.000032 23.136159 6.367097 79.353793 3.377805 -15.591631 21.038507 16.616515 30.885682 7.470335 4.709578 -14.976143 38.022574 0.000000 0.000001 -0.000001 0.124773 0.548169 10.690315 0.022115 0.509064 -4.974081 0.022126 0.509067 -4.974082 -0.000000 0.000002 -0.000005 0.173058 1.128678 7.185171 0.014158 0.407447 -3.979233 0.031830 0.610538 -5.968919 0.000001 0.000000 0.000003 0.145304 1.309858 6.418907 0.022111 0.509073 -4.974084 0.043310 0.711828 -6.963862 0.000001 0.000000 0.000004 0.127617 1.425097 5.589588 0.022118 0.509084 -4.974078 0.022113 0.509077 -4.974069 -0.000001 0.000001 0.000001 3.090545 7.543382 0.366507 -23.885402 33.131359 32.291393 0.000042 64.902705 -0.000040 10.263124 -11.875342 -73.956209 -8.560465 -1.425319 -28.054823 15.238605 0.853420 -4.423703 3.560840 -5.296583 -20.729585 -0.000004 -0.000001 0.000003 0.222970 -0.760126 -8.414796 0.017648 -0.405471 4.983564 0.017645 -0.405453 4.983473 0.000001 0.000003 -0.000001 0.278269 -0.553740 -9.805528 0.017640 -0.405460 4.983582 0.034570 -0.566916 6.976914 0.000001 -0.000001 -0.000001 0.304303 -0.406483 -9.824017 0.011293 -0.324512 3.986833 0.025404 -0.486252 5.980129 -0.000000 0.000001 -0.000003 0.142167 0.381750 -13.705965 0.017643 -0.405464 4.983581 0.017644 -0.405474 4.983579 -0.000002 0.000001 0.000004 -7.439999 8.125991 4.473842 6.816799 1.662507 3.804735 -28.518275 2.365497 -1.677151 -51.289195 4.091419 -10.232094 0.000000 0.000000 0.000000 -11.840548 -7.292823 -5.257724 7.620315 -11.295894 -2.711637 -4.460435 -2.935258 5.023551 -65.076355 -12.676381 18.943202 0.000000 -0.000000 -0.000000 
0.731542 34.877277 -11.687691 81.723562 -1.698581 -0.419612 1.231210 0.358122 -0.310267 1.735319 0.521378 -0.442050 1.733770 0.525838 -0.443767 -21.525886 -1.128874 3.778819 -12.908426 2.188320 -1.232356 -0.000000 -0.000000 -0.000000 1.952231 -7.741564 0.845397 -6.492036 -29.416317 -17.322248 0.000020 -69.671939 -0.000019 24.683795 9.245216 78.549225 3.377803 -15.591633 21.038509 16.616513 30.885675 7.470340 4.709580 -14.976137 38.022574 0.000000 -0.000000 -0.000003 0.124775 0.548171 10.690318 0.022111 0.509063 -4.974075 0.022124 0.509065 -4.974088 -0.000001 0.000001 -0.000000 0.173059 1.128680 7.185172 0.014157 0.407448 -3.979232 0.031831 0.610538 -5.968919 0.000001 0.000001 -0.000000 0.145303 1.309859 6.418902 0.022115 0.509074 -4.974086 0.043312 0.711828 -6.963863 0.000001 -0.000001 0.000008 0.127617 1.425098 5.589587 0.022116 0.509082 -4.974080 0.022114 0.509074 -4.974072 -0.000001 0.000003 0.000002 3.173407 5.548884 0.115307 -22.268826 30.275251 33.225749 0.000071 73.045212 -0.000076 11.797509 -14.818034 -73.657511 -8.546800 -1.437838 -28.020786 15.238605 0.853417 -4.423701 3.560838 -5.296581 -20.729585 0.000002 -0.000001 -0.000000 0.222970 -0.760126 -8.414799 0.017644 -0.405474 4.983563 0.017646 -0.405454 4.983475 -0.000000 -0.000003 0.000001 0.278270 -0.553739 -9.805530 0.017641 -0.405459 4.983576 0.034572 -0.566912 6.976916 0.000001 -0.000001 -0.000007 0.304305 -0.406477 -9.824016 0.011296 -0.324515 3.986836 0.025405 -0.486254 5.980132 -0.000001 0.000000 -0.000005 0.142167 0.381750 -13.705962 0.017644 -0.405464 4.983575 0.017645 -0.405472 4.983575 0.000000 -0.000001 0.000007 -6.420635 8.349337 4.471378 5.341696 1.345749 3.790108 -27.779443 2.224059 -1.608592 -53.026146 4.279903 -9.928207 -0.000000 0.000000 0.000000 -10.670934 -7.354769 -5.041231 5.724562 -11.580237 -2.648601 -3.461308 -2.886944 4.866564 -66.402129 -13.261013 18.884561 0.000000 -0.000001 -0.000001 
